# xmcd
#
# Track frame offsets: 
#        150
#        12416
#        26350
#        40510
#        55011
#        67847
#        83362
#        98936
#        113155
#        128154
#        142783
#        158388
#        172121
#        185354
#        198179
#        212624
#        227711
#        240074
#
# Disc length: 3372 seconds
#
# Revision: 1
# Processed by: cddbd v1.5.2PL0 Copyright (c) Steve Scherf et al.
# Submitted via: ExactAudioCopy v0.95b2
#
DISCID=cb0d2a12
DTITLE=Victoria Spivey - Victoria Spivey: The Essential
DYEAR=1900
DGENRE=Blues
TTITLE0=Alligator Pond Went Dry 
TTITLE1=Murder in the First Degree 
TTITLE2=My Handy Man 
TTITLE3=Dirty T.B. Blues 
TTITLE4=Give It to Him 
TTITLE5=Steady Grind 
TTITLE6=Organ Grinder Blues 
TTITLE7=Low Down Man Blues 
TTITLE8=Arkansas Road Blues 
TTITLE9=T.B. Blues 
TTITLE10=Christmas Morning Blues 
TTITLE11=I Can't Last Long 
TTITLE12=New Blacksnake Blues, Pt. 1
TTITLE13=New Blacksnake Blues, Pt. 2 
TTITLE14=Funny Feathers 
TTITLE15=Dope Head Blues 
TTITLE16=Blood Hound Blues 
TTITLE17=Showered With the Blues 
EXTD=hale
EXTT0=
EXTT1=
EXTT2=
EXTT3=
EXTT4=
EXTT5=
EXTT6=
EXTT7=
EXTT8=
EXTT9=
EXTT10=
EXTT11=
EXTT12=
EXTT13=
EXTT14=
EXTT15=
EXTT16=
EXTT17=
PLAYORDER=
